<mxfile host="app.diagrams.net" modified="2023-09-28T06:29:43.129Z" agent="Mozilla/5.0 (Windows NT 10.0; Win64; x64) AppleWebKit/537.36 (KHTML, like Gecko) Chrome/117.0.0.0 Safari/537.36 Edg/117.0.2045.43" etag="nfxgJjz1NjFUd5ChkaNG" version="21.5.1" type="device">
  <diagram id="C5RBs43oDa-KdzZeNtuy" name="Page-1">
    <mxGraphModel dx="1002" dy="1842" grid="1" gridSize="10" guides="1" tooltips="1" connect="1" arrows="1" fold="1" page="1" pageScale="1" pageWidth="827" pageHeight="1169" math="0" shadow="0">
      <root>
        <mxCell id="WIyWlLk6GJQsqaUBKTNV-0" />
        <mxCell id="WIyWlLk6GJQsqaUBKTNV-1" parent="WIyWlLk6GJQsqaUBKTNV-0" />
        <mxCell id="ZnrSPSn4q6URJcWRULZG-3" value="" style="rounded=0;orthogonalLoop=1;jettySize=auto;html=1;endArrow=none;endFill=0;" edge="1" parent="WIyWlLk6GJQsqaUBKTNV-1" source="WIyWlLk6GJQsqaUBKTNV-3" target="ZnrSPSn4q6URJcWRULZG-2">
          <mxGeometry relative="1" as="geometry" />
        </mxCell>
        <mxCell id="ZnrSPSn4q6URJcWRULZG-8" style="rounded=0;orthogonalLoop=1;jettySize=auto;html=1;endArrow=none;endFill=0;" edge="1" parent="WIyWlLk6GJQsqaUBKTNV-1" source="WIyWlLk6GJQsqaUBKTNV-3" target="ZnrSPSn4q6URJcWRULZG-7">
          <mxGeometry relative="1" as="geometry" />
        </mxCell>
        <mxCell id="ZnrSPSn4q6URJcWRULZG-9" style="rounded=0;orthogonalLoop=1;jettySize=auto;html=1;endArrow=none;endFill=0;" edge="1" parent="WIyWlLk6GJQsqaUBKTNV-1" source="WIyWlLk6GJQsqaUBKTNV-3" target="ZnrSPSn4q6URJcWRULZG-6">
          <mxGeometry relative="1" as="geometry" />
        </mxCell>
        <mxCell id="ZnrSPSn4q6URJcWRULZG-11" value="" style="edgeStyle=orthogonalEdgeStyle;rounded=0;orthogonalLoop=1;jettySize=auto;html=1;endArrow=none;endFill=0;" edge="1" parent="WIyWlLk6GJQsqaUBKTNV-1" source="WIyWlLk6GJQsqaUBKTNV-3" target="ZnrSPSn4q6URJcWRULZG-10">
          <mxGeometry relative="1" as="geometry" />
        </mxCell>
        <mxCell id="ZnrSPSn4q6URJcWRULZG-102" value="1" style="edgeLabel;html=1;align=center;verticalAlign=middle;resizable=0;points=[];fontSize=20;" vertex="1" connectable="0" parent="ZnrSPSn4q6URJcWRULZG-11">
          <mxGeometry x="-0.4053" y="1" relative="1" as="geometry">
            <mxPoint as="offset" />
          </mxGeometry>
        </mxCell>
        <mxCell id="ZnrSPSn4q6URJcWRULZG-66" value="" style="edgeStyle=orthogonalEdgeStyle;rounded=0;orthogonalLoop=1;jettySize=auto;html=1;endArrow=none;endFill=0;" edge="1" parent="WIyWlLk6GJQsqaUBKTNV-1" source="WIyWlLk6GJQsqaUBKTNV-3" target="ZnrSPSn4q6URJcWRULZG-65">
          <mxGeometry relative="1" as="geometry" />
        </mxCell>
        <mxCell id="ZnrSPSn4q6URJcWRULZG-104" value="1" style="edgeLabel;html=1;align=center;verticalAlign=middle;resizable=0;points=[];fontSize=20;" vertex="1" connectable="0" parent="ZnrSPSn4q6URJcWRULZG-66">
          <mxGeometry x="-0.648" y="3" relative="1" as="geometry">
            <mxPoint as="offset" />
          </mxGeometry>
        </mxCell>
        <mxCell id="WIyWlLk6GJQsqaUBKTNV-3" value="Person" style="rounded=0;whiteSpace=wrap;html=1;fontSize=12;glass=0;strokeWidth=1;shadow=0;" parent="WIyWlLk6GJQsqaUBKTNV-1" vertex="1">
          <mxGeometry x="160" y="80" width="120" height="40" as="geometry" />
        </mxCell>
        <mxCell id="ZnrSPSn4q6URJcWRULZG-2" value="Firstname" style="ellipse;whiteSpace=wrap;html=1;rounded=0;glass=0;strokeWidth=1;shadow=0;" vertex="1" parent="WIyWlLk6GJQsqaUBKTNV-1">
          <mxGeometry x="5" y="70" width="80" height="60" as="geometry" />
        </mxCell>
        <mxCell id="ZnrSPSn4q6URJcWRULZG-6" value="Lastname" style="ellipse;whiteSpace=wrap;html=1;rounded=0;glass=0;strokeWidth=1;shadow=0;" vertex="1" parent="WIyWlLk6GJQsqaUBKTNV-1">
          <mxGeometry x="80" y="-20" width="80" height="60" as="geometry" />
        </mxCell>
        <mxCell id="ZnrSPSn4q6URJcWRULZG-7" value="Verified" style="ellipse;whiteSpace=wrap;html=1;rounded=0;glass=0;strokeWidth=1;shadow=0;" vertex="1" parent="WIyWlLk6GJQsqaUBKTNV-1">
          <mxGeometry x="210" y="-30" width="80" height="60" as="geometry" />
        </mxCell>
        <mxCell id="ZnrSPSn4q6URJcWRULZG-13" value="" style="edgeStyle=orthogonalEdgeStyle;rounded=0;orthogonalLoop=1;jettySize=auto;html=1;endArrow=none;endFill=0;" edge="1" parent="WIyWlLk6GJQsqaUBKTNV-1" source="ZnrSPSn4q6URJcWRULZG-10" target="ZnrSPSn4q6URJcWRULZG-12">
          <mxGeometry relative="1" as="geometry" />
        </mxCell>
        <mxCell id="ZnrSPSn4q6URJcWRULZG-103" value="1" style="edgeLabel;html=1;align=center;verticalAlign=middle;resizable=0;points=[];fontSize=20;" vertex="1" connectable="0" parent="ZnrSPSn4q6URJcWRULZG-13">
          <mxGeometry x="0.4667" y="2" relative="1" as="geometry">
            <mxPoint as="offset" />
          </mxGeometry>
        </mxCell>
        <mxCell id="ZnrSPSn4q6URJcWRULZG-10" value="kÃ¶nnen&lt;br&gt;sein" style="rhombus;whiteSpace=wrap;html=1;rounded=0;glass=0;strokeWidth=1;shadow=0;" vertex="1" parent="WIyWlLk6GJQsqaUBKTNV-1">
          <mxGeometry x="180" y="180" width="80" height="80" as="geometry" />
        </mxCell>
        <mxCell id="ZnrSPSn4q6URJcWRULZG-18" style="rounded=0;orthogonalLoop=1;jettySize=auto;html=1;endArrow=none;endFill=0;" edge="1" parent="WIyWlLk6GJQsqaUBKTNV-1" source="ZnrSPSn4q6URJcWRULZG-12" target="ZnrSPSn4q6URJcWRULZG-14">
          <mxGeometry relative="1" as="geometry" />
        </mxCell>
        <mxCell id="ZnrSPSn4q6URJcWRULZG-19" style="rounded=0;orthogonalLoop=1;jettySize=auto;html=1;endArrow=none;endFill=0;" edge="1" parent="WIyWlLk6GJQsqaUBKTNV-1" source="ZnrSPSn4q6URJcWRULZG-12" target="ZnrSPSn4q6URJcWRULZG-15">
          <mxGeometry relative="1" as="geometry" />
        </mxCell>
        <mxCell id="ZnrSPSn4q6URJcWRULZG-20" style="rounded=0;orthogonalLoop=1;jettySize=auto;html=1;endArrow=none;endFill=0;" edge="1" parent="WIyWlLk6GJQsqaUBKTNV-1" source="ZnrSPSn4q6URJcWRULZG-12" target="ZnrSPSn4q6URJcWRULZG-17">
          <mxGeometry relative="1" as="geometry" />
        </mxCell>
        <mxCell id="ZnrSPSn4q6URJcWRULZG-21" style="rounded=0;orthogonalLoop=1;jettySize=auto;html=1;endArrow=none;endFill=0;" edge="1" parent="WIyWlLk6GJQsqaUBKTNV-1" source="ZnrSPSn4q6URJcWRULZG-12" target="ZnrSPSn4q6URJcWRULZG-16">
          <mxGeometry relative="1" as="geometry" />
        </mxCell>
        <mxCell id="ZnrSPSn4q6URJcWRULZG-25" value="" style="edgeStyle=orthogonalEdgeStyle;rounded=0;orthogonalLoop=1;jettySize=auto;html=1;endArrow=none;endFill=0;startArrow=none;startFill=0;" edge="1" parent="WIyWlLk6GJQsqaUBKTNV-1" source="ZnrSPSn4q6URJcWRULZG-12" target="ZnrSPSn4q6URJcWRULZG-24">
          <mxGeometry relative="1" as="geometry" />
        </mxCell>
        <mxCell id="ZnrSPSn4q6URJcWRULZG-100" value="1" style="edgeLabel;html=1;align=center;verticalAlign=middle;resizable=0;points=[];fontSize=20;" vertex="1" connectable="0" parent="ZnrSPSn4q6URJcWRULZG-25">
          <mxGeometry x="-0.7789" y="3" relative="1" as="geometry">
            <mxPoint as="offset" />
          </mxGeometry>
        </mxCell>
        <mxCell id="ZnrSPSn4q6URJcWRULZG-36" style="edgeStyle=orthogonalEdgeStyle;rounded=0;orthogonalLoop=1;jettySize=auto;html=1;endArrow=none;endFill=0;" edge="1" parent="WIyWlLk6GJQsqaUBKTNV-1" source="ZnrSPSn4q6URJcWRULZG-12" target="ZnrSPSn4q6URJcWRULZG-34">
          <mxGeometry relative="1" as="geometry" />
        </mxCell>
        <mxCell id="ZnrSPSn4q6URJcWRULZG-108" value="1" style="edgeLabel;html=1;align=center;verticalAlign=middle;resizable=0;points=[];fontSize=20;" vertex="1" connectable="0" parent="ZnrSPSn4q6URJcWRULZG-36">
          <mxGeometry x="-0.528" relative="1" as="geometry">
            <mxPoint as="offset" />
          </mxGeometry>
        </mxCell>
        <mxCell id="ZnrSPSn4q6URJcWRULZG-12" value="Driver" style="whiteSpace=wrap;html=1;rounded=0;glass=0;strokeWidth=1;shadow=0;" vertex="1" parent="WIyWlLk6GJQsqaUBKTNV-1">
          <mxGeometry x="160" y="350" width="120" height="60" as="geometry" />
        </mxCell>
        <mxCell id="ZnrSPSn4q6URJcWRULZG-14" value="Id" style="ellipse;whiteSpace=wrap;html=1;rounded=0;glass=0;strokeWidth=1;shadow=0;" vertex="1" parent="WIyWlLk6GJQsqaUBKTNV-1">
          <mxGeometry x="10" y="290" width="80" height="60" as="geometry" />
        </mxCell>
        <mxCell id="ZnrSPSn4q6URJcWRULZG-15" value="IdDrivingLicence" style="ellipse;whiteSpace=wrap;html=1;rounded=0;glass=0;strokeWidth=1;shadow=0;" vertex="1" parent="WIyWlLk6GJQsqaUBKTNV-1">
          <mxGeometry x="20" y="360" width="110" height="60" as="geometry" />
        </mxCell>
        <mxCell id="ZnrSPSn4q6URJcWRULZG-16" value="Seats" style="ellipse;whiteSpace=wrap;html=1;rounded=0;glass=0;strokeWidth=1;shadow=0;" vertex="1" parent="WIyWlLk6GJQsqaUBKTNV-1">
          <mxGeometry x="130" y="470" width="80" height="60" as="geometry" />
        </mxCell>
        <mxCell id="ZnrSPSn4q6URJcWRULZG-17" value="IdPerson" style="ellipse;whiteSpace=wrap;html=1;rounded=0;glass=0;strokeWidth=1;shadow=0;" vertex="1" parent="WIyWlLk6GJQsqaUBKTNV-1">
          <mxGeometry x="40" y="440" width="80" height="60" as="geometry" />
        </mxCell>
        <mxCell id="ZnrSPSn4q6URJcWRULZG-27" value="" style="edgeStyle=orthogonalEdgeStyle;rounded=0;orthogonalLoop=1;jettySize=auto;html=1;endArrow=none;endFill=0;" edge="1" parent="WIyWlLk6GJQsqaUBKTNV-1" source="ZnrSPSn4q6URJcWRULZG-24" target="ZnrSPSn4q6URJcWRULZG-26">
          <mxGeometry relative="1" as="geometry" />
        </mxCell>
        <mxCell id="ZnrSPSn4q6URJcWRULZG-101" value="1" style="edgeLabel;html=1;align=center;verticalAlign=middle;resizable=0;points=[];fontSize=20;" vertex="1" connectable="0" parent="ZnrSPSn4q6URJcWRULZG-27">
          <mxGeometry x="0.7858" y="3" relative="1" as="geometry">
            <mxPoint as="offset" />
          </mxGeometry>
        </mxCell>
        <mxCell id="ZnrSPSn4q6URJcWRULZG-24" value="haben" style="rhombus;whiteSpace=wrap;html=1;rounded=0;glass=0;strokeWidth=1;shadow=0;" vertex="1" parent="WIyWlLk6GJQsqaUBKTNV-1">
          <mxGeometry x="280" y="505" width="80" height="80" as="geometry" />
        </mxCell>
        <mxCell id="ZnrSPSn4q6URJcWRULZG-31" style="rounded=0;orthogonalLoop=1;jettySize=auto;html=1;endArrow=none;endFill=0;" edge="1" parent="WIyWlLk6GJQsqaUBKTNV-1" source="ZnrSPSn4q6URJcWRULZG-26" target="ZnrSPSn4q6URJcWRULZG-30">
          <mxGeometry relative="1" as="geometry">
            <mxPoint x="220" y="780" as="targetPoint" />
          </mxGeometry>
        </mxCell>
        <mxCell id="ZnrSPSn4q6URJcWRULZG-32" style="rounded=0;orthogonalLoop=1;jettySize=auto;html=1;endArrow=none;endFill=0;" edge="1" parent="WIyWlLk6GJQsqaUBKTNV-1" source="ZnrSPSn4q6URJcWRULZG-26" target="ZnrSPSn4q6URJcWRULZG-29">
          <mxGeometry relative="1" as="geometry" />
        </mxCell>
        <mxCell id="ZnrSPSn4q6URJcWRULZG-33" style="rounded=0;orthogonalLoop=1;jettySize=auto;html=1;endArrow=none;endFill=0;" edge="1" parent="WIyWlLk6GJQsqaUBKTNV-1" source="ZnrSPSn4q6URJcWRULZG-26" target="ZnrSPSn4q6URJcWRULZG-28">
          <mxGeometry relative="1" as="geometry" />
        </mxCell>
        <mxCell id="ZnrSPSn4q6URJcWRULZG-26" value="DrivingLicence" style="whiteSpace=wrap;html=1;rounded=0;glass=0;strokeWidth=1;shadow=0;" vertex="1" parent="WIyWlLk6GJQsqaUBKTNV-1">
          <mxGeometry x="210" y="690" width="120" height="60" as="geometry" />
        </mxCell>
        <mxCell id="ZnrSPSn4q6URJcWRULZG-28" value="Firstname" style="ellipse;whiteSpace=wrap;html=1;rounded=0;glass=0;strokeWidth=1;shadow=0;" vertex="1" parent="WIyWlLk6GJQsqaUBKTNV-1">
          <mxGeometry x="460" y="750" width="80" height="60" as="geometry" />
        </mxCell>
        <mxCell id="ZnrSPSn4q6URJcWRULZG-29" value="ExpireDate" style="ellipse;whiteSpace=wrap;html=1;rounded=0;glass=0;strokeWidth=1;shadow=0;" vertex="1" parent="WIyWlLk6GJQsqaUBKTNV-1">
          <mxGeometry x="310" y="790" width="80" height="60" as="geometry" />
        </mxCell>
        <mxCell id="ZnrSPSn4q6URJcWRULZG-30" value="Id" style="ellipse;whiteSpace=wrap;html=1;rounded=0;glass=0;strokeWidth=1;shadow=0;" vertex="1" parent="WIyWlLk6GJQsqaUBKTNV-1">
          <mxGeometry x="110" y="800" width="80" height="60" as="geometry" />
        </mxCell>
        <mxCell id="ZnrSPSn4q6URJcWRULZG-38" value="" style="edgeStyle=orthogonalEdgeStyle;rounded=0;orthogonalLoop=1;jettySize=auto;html=1;endArrow=none;endFill=0;" edge="1" parent="WIyWlLk6GJQsqaUBKTNV-1" source="ZnrSPSn4q6URJcWRULZG-34" target="ZnrSPSn4q6URJcWRULZG-37">
          <mxGeometry relative="1" as="geometry" />
        </mxCell>
        <mxCell id="ZnrSPSn4q6URJcWRULZG-109" value="n" style="edgeLabel;html=1;align=center;verticalAlign=middle;resizable=0;points=[];fontSize=20;" vertex="1" connectable="0" parent="ZnrSPSn4q6URJcWRULZG-38">
          <mxGeometry x="0.3867" relative="1" as="geometry">
            <mxPoint as="offset" />
          </mxGeometry>
        </mxCell>
        <mxCell id="ZnrSPSn4q6URJcWRULZG-34" value="kÃ¶nnen&amp;nbsp;&lt;br&gt;erstellen" style="rhombus;whiteSpace=wrap;html=1;rounded=0;glass=0;strokeWidth=1;shadow=0;" vertex="1" parent="WIyWlLk6GJQsqaUBKTNV-1">
          <mxGeometry x="350" y="310" width="80" height="80" as="geometry" />
        </mxCell>
        <mxCell id="ZnrSPSn4q6URJcWRULZG-50" style="rounded=0;orthogonalLoop=1;jettySize=auto;html=1;endArrow=none;endFill=0;" edge="1" parent="WIyWlLk6GJQsqaUBKTNV-1" source="ZnrSPSn4q6URJcWRULZG-37" target="ZnrSPSn4q6URJcWRULZG-47">
          <mxGeometry relative="1" as="geometry" />
        </mxCell>
        <mxCell id="ZnrSPSn4q6URJcWRULZG-51" style="rounded=0;orthogonalLoop=1;jettySize=auto;html=1;endArrow=none;endFill=0;" edge="1" parent="WIyWlLk6GJQsqaUBKTNV-1" source="ZnrSPSn4q6URJcWRULZG-37" target="ZnrSPSn4q6URJcWRULZG-48">
          <mxGeometry relative="1" as="geometry" />
        </mxCell>
        <mxCell id="ZnrSPSn4q6URJcWRULZG-52" style="rounded=0;orthogonalLoop=1;jettySize=auto;html=1;endArrow=none;endFill=0;" edge="1" parent="WIyWlLk6GJQsqaUBKTNV-1" source="ZnrSPSn4q6URJcWRULZG-37" target="ZnrSPSn4q6URJcWRULZG-40">
          <mxGeometry relative="1" as="geometry" />
        </mxCell>
        <mxCell id="ZnrSPSn4q6URJcWRULZG-56" style="rounded=0;orthogonalLoop=1;jettySize=auto;html=1;endArrow=none;endFill=0;" edge="1" parent="WIyWlLk6GJQsqaUBKTNV-1" source="ZnrSPSn4q6URJcWRULZG-37" target="ZnrSPSn4q6URJcWRULZG-43">
          <mxGeometry relative="1" as="geometry" />
        </mxCell>
        <mxCell id="ZnrSPSn4q6URJcWRULZG-57" style="rounded=0;orthogonalLoop=1;jettySize=auto;html=1;endArrow=none;endFill=0;" edge="1" parent="WIyWlLk6GJQsqaUBKTNV-1" source="ZnrSPSn4q6URJcWRULZG-37" target="ZnrSPSn4q6URJcWRULZG-46">
          <mxGeometry relative="1" as="geometry" />
        </mxCell>
        <mxCell id="ZnrSPSn4q6URJcWRULZG-58" style="rounded=0;orthogonalLoop=1;jettySize=auto;html=1;endArrow=none;endFill=0;" edge="1" parent="WIyWlLk6GJQsqaUBKTNV-1" source="ZnrSPSn4q6URJcWRULZG-37" target="ZnrSPSn4q6URJcWRULZG-41">
          <mxGeometry relative="1" as="geometry" />
        </mxCell>
        <mxCell id="ZnrSPSn4q6URJcWRULZG-69" value="" style="edgeStyle=orthogonalEdgeStyle;rounded=0;orthogonalLoop=1;jettySize=auto;html=1;endArrow=none;endFill=0;fontSize=20;" edge="1" parent="WIyWlLk6GJQsqaUBKTNV-1" source="ZnrSPSn4q6URJcWRULZG-37" target="ZnrSPSn4q6URJcWRULZG-68">
          <mxGeometry relative="1" as="geometry" />
        </mxCell>
        <mxCell id="ZnrSPSn4q6URJcWRULZG-106" value="1" style="edgeLabel;html=1;align=center;verticalAlign=middle;resizable=0;points=[];fontSize=20;" vertex="1" connectable="0" parent="ZnrSPSn4q6URJcWRULZG-69">
          <mxGeometry x="-0.4" relative="1" as="geometry">
            <mxPoint as="offset" />
          </mxGeometry>
        </mxCell>
        <mxCell id="ZnrSPSn4q6URJcWRULZG-37" value="TourPlan" style="whiteSpace=wrap;html=1;rounded=0;glass=0;strokeWidth=1;shadow=0;" vertex="1" parent="WIyWlLk6GJQsqaUBKTNV-1">
          <mxGeometry x="490" y="320" width="120" height="60" as="geometry" />
        </mxCell>
        <mxCell id="ZnrSPSn4q6URJcWRULZG-40" value="Start" style="ellipse;whiteSpace=wrap;html=1;rounded=0;glass=0;strokeWidth=1;shadow=0;" vertex="1" parent="WIyWlLk6GJQsqaUBKTNV-1">
          <mxGeometry x="720" y="340" width="80" height="60" as="geometry" />
        </mxCell>
        <mxCell id="ZnrSPSn4q6URJcWRULZG-41" value="Eta" style="ellipse;whiteSpace=wrap;html=1;rounded=0;glass=0;strokeWidth=1;shadow=0;" vertex="1" parent="WIyWlLk6GJQsqaUBKTNV-1">
          <mxGeometry x="730" y="460" width="80" height="60" as="geometry" />
        </mxCell>
        <mxCell id="ZnrSPSn4q6URJcWRULZG-42" value="Id" style="ellipse;whiteSpace=wrap;html=1;rounded=0;glass=0;strokeWidth=1;shadow=0;" vertex="1" parent="WIyWlLk6GJQsqaUBKTNV-1">
          <mxGeometry x="430" y="500" width="80" height="60" as="geometry" />
        </mxCell>
        <mxCell id="ZnrSPSn4q6URJcWRULZG-43" value="Message" style="ellipse;whiteSpace=wrap;html=1;rounded=0;glass=0;strokeWidth=1;shadow=0;" vertex="1" parent="WIyWlLk6GJQsqaUBKTNV-1">
          <mxGeometry x="810" y="410" width="80" height="60" as="geometry" />
        </mxCell>
        <mxCell id="ZnrSPSn4q6URJcWRULZG-44" value="IdDriver" style="ellipse;whiteSpace=wrap;html=1;rounded=0;glass=0;strokeWidth=1;shadow=0;" vertex="1" parent="WIyWlLk6GJQsqaUBKTNV-1">
          <mxGeometry x="520" y="510" width="80" height="60" as="geometry" />
        </mxCell>
        <mxCell id="ZnrSPSn4q6URJcWRULZG-45" value="Departure" style="ellipse;whiteSpace=wrap;html=1;rounded=0;glass=0;strokeWidth=1;shadow=0;" vertex="1" parent="WIyWlLk6GJQsqaUBKTNV-1">
          <mxGeometry x="610" y="510" width="80" height="60" as="geometry" />
        </mxCell>
        <mxCell id="ZnrSPSn4q6URJcWRULZG-46" value="StopRequests" style="ellipse;whiteSpace=wrap;html=1;rounded=0;glass=0;strokeWidth=1;shadow=0;" vertex="1" parent="WIyWlLk6GJQsqaUBKTNV-1">
          <mxGeometry x="620" y="440" width="80" height="60" as="geometry" />
        </mxCell>
        <mxCell id="ZnrSPSn4q6URJcWRULZG-47" value="Destination" style="ellipse;whiteSpace=wrap;html=1;rounded=0;glass=0;strokeWidth=1;shadow=0;" vertex="1" parent="WIyWlLk6GJQsqaUBKTNV-1">
          <mxGeometry x="820" y="290" width="80" height="60" as="geometry" />
        </mxCell>
        <mxCell id="ZnrSPSn4q6URJcWRULZG-48" value="CurrentLatitude" style="ellipse;whiteSpace=wrap;html=1;rounded=0;glass=0;strokeWidth=1;shadow=0;" vertex="1" parent="WIyWlLk6GJQsqaUBKTNV-1">
          <mxGeometry x="660" y="200" width="100" height="60" as="geometry" />
        </mxCell>
        <mxCell id="ZnrSPSn4q6URJcWRULZG-62" value="CurrentLongitude" style="ellipse;whiteSpace=wrap;html=1;rounded=0;glass=0;strokeWidth=1;shadow=0;" vertex="1" parent="WIyWlLk6GJQsqaUBKTNV-1">
          <mxGeometry x="780" y="230" width="100" height="60" as="geometry" />
        </mxCell>
        <mxCell id="ZnrSPSn4q6URJcWRULZG-71" value="" style="edgeStyle=orthogonalEdgeStyle;rounded=0;orthogonalLoop=1;jettySize=auto;html=1;endArrow=none;endFill=0;" edge="1" parent="WIyWlLk6GJQsqaUBKTNV-1" source="ZnrSPSn4q6URJcWRULZG-65" target="ZnrSPSn4q6URJcWRULZG-70">
          <mxGeometry relative="1" as="geometry" />
        </mxCell>
        <mxCell id="ZnrSPSn4q6URJcWRULZG-105" value="n" style="edgeLabel;html=1;align=center;verticalAlign=middle;resizable=0;points=[];fontSize=20;" vertex="1" connectable="0" parent="ZnrSPSn4q6URJcWRULZG-71">
          <mxGeometry x="0.42" y="-1" relative="1" as="geometry">
            <mxPoint as="offset" />
          </mxGeometry>
        </mxCell>
        <mxCell id="ZnrSPSn4q6URJcWRULZG-65" value="kÃ¶nnen&amp;nbsp;&lt;br&gt;erstellen" style="rhombus;whiteSpace=wrap;html=1;rounded=0;glass=0;strokeWidth=1;shadow=0;" vertex="1" parent="WIyWlLk6GJQsqaUBKTNV-1">
          <mxGeometry x="380" y="60" width="80" height="80" as="geometry" />
        </mxCell>
        <mxCell id="ZnrSPSn4q6URJcWRULZG-72" style="edgeStyle=orthogonalEdgeStyle;rounded=0;orthogonalLoop=1;jettySize=auto;html=1;exitX=0.5;exitY=0;exitDx=0;exitDy=0;endArrow=none;endFill=0;" edge="1" parent="WIyWlLk6GJQsqaUBKTNV-1" source="ZnrSPSn4q6URJcWRULZG-68" target="ZnrSPSn4q6URJcWRULZG-70">
          <mxGeometry relative="1" as="geometry" />
        </mxCell>
        <mxCell id="ZnrSPSn4q6URJcWRULZG-107" value="n" style="edgeLabel;html=1;align=center;verticalAlign=middle;resizable=0;points=[];fontSize=20;" vertex="1" connectable="0" parent="ZnrSPSn4q6URJcWRULZG-72">
          <mxGeometry x="0.6" y="1" relative="1" as="geometry">
            <mxPoint as="offset" />
          </mxGeometry>
        </mxCell>
        <mxCell id="ZnrSPSn4q6URJcWRULZG-68" value="kÃ¶nnen&amp;nbsp;&lt;br&gt;erhalten" style="rhombus;whiteSpace=wrap;html=1;rounded=0;glass=0;strokeWidth=1;shadow=0;" vertex="1" parent="WIyWlLk6GJQsqaUBKTNV-1">
          <mxGeometry x="510" y="190" width="80" height="80" as="geometry" />
        </mxCell>
        <mxCell id="ZnrSPSn4q6URJcWRULZG-82" style="rounded=0;orthogonalLoop=1;jettySize=auto;html=1;endArrow=none;endFill=0;" edge="1" parent="WIyWlLk6GJQsqaUBKTNV-1" source="ZnrSPSn4q6URJcWRULZG-70" target="ZnrSPSn4q6URJcWRULZG-79">
          <mxGeometry relative="1" as="geometry" />
        </mxCell>
        <mxCell id="ZnrSPSn4q6URJcWRULZG-83" style="rounded=0;orthogonalLoop=1;jettySize=auto;html=1;endArrow=none;endFill=0;" edge="1" parent="WIyWlLk6GJQsqaUBKTNV-1" source="ZnrSPSn4q6URJcWRULZG-70" target="ZnrSPSn4q6URJcWRULZG-78">
          <mxGeometry relative="1" as="geometry" />
        </mxCell>
        <mxCell id="ZnrSPSn4q6URJcWRULZG-84" style="rounded=0;orthogonalLoop=1;jettySize=auto;html=1;endArrow=none;endFill=0;" edge="1" parent="WIyWlLk6GJQsqaUBKTNV-1" source="ZnrSPSn4q6URJcWRULZG-70" target="ZnrSPSn4q6URJcWRULZG-77">
          <mxGeometry relative="1" as="geometry" />
        </mxCell>
        <mxCell id="ZnrSPSn4q6URJcWRULZG-85" style="rounded=0;orthogonalLoop=1;jettySize=auto;html=1;endArrow=none;endFill=0;" edge="1" parent="WIyWlLk6GJQsqaUBKTNV-1" source="ZnrSPSn4q6URJcWRULZG-70" target="ZnrSPSn4q6URJcWRULZG-76">
          <mxGeometry relative="1" as="geometry" />
        </mxCell>
        <mxCell id="ZnrSPSn4q6URJcWRULZG-87" style="rounded=0;orthogonalLoop=1;jettySize=auto;html=1;endArrow=none;endFill=0;" edge="1" parent="WIyWlLk6GJQsqaUBKTNV-1" source="ZnrSPSn4q6URJcWRULZG-70" target="ZnrSPSn4q6URJcWRULZG-75">
          <mxGeometry relative="1" as="geometry" />
        </mxCell>
        <mxCell id="ZnrSPSn4q6URJcWRULZG-70" value="PassengerRequest" style="whiteSpace=wrap;html=1;rounded=0;glass=0;strokeWidth=1;shadow=0;" vertex="1" parent="WIyWlLk6GJQsqaUBKTNV-1">
          <mxGeometry x="520" y="70" width="120" height="60" as="geometry" />
        </mxCell>
        <mxCell id="ZnrSPSn4q6URJcWRULZG-73" value="Id" style="ellipse;whiteSpace=wrap;html=1;rounded=0;glass=0;strokeWidth=1;shadow=0;" vertex="1" parent="WIyWlLk6GJQsqaUBKTNV-1">
          <mxGeometry x="450" y="-60" width="80" height="60" as="geometry" />
        </mxCell>
        <mxCell id="ZnrSPSn4q6URJcWRULZG-88" style="rounded=0;orthogonalLoop=1;jettySize=auto;html=1;endArrow=none;endFill=0;" edge="1" parent="WIyWlLk6GJQsqaUBKTNV-1" source="ZnrSPSn4q6URJcWRULZG-73" target="ZnrSPSn4q6URJcWRULZG-70">
          <mxGeometry relative="1" as="geometry">
            <mxPoint x="530" y="-10" as="sourcePoint" />
          </mxGeometry>
        </mxCell>
        <mxCell id="ZnrSPSn4q6URJcWRULZG-89" style="rounded=0;orthogonalLoop=1;jettySize=auto;html=1;endArrow=none;endFill=0;" edge="1" parent="WIyWlLk6GJQsqaUBKTNV-1" source="ZnrSPSn4q6URJcWRULZG-74" target="ZnrSPSn4q6URJcWRULZG-70">
          <mxGeometry relative="1" as="geometry" />
        </mxCell>
        <mxCell id="ZnrSPSn4q6URJcWRULZG-74" value="IdPerson" style="ellipse;whiteSpace=wrap;html=1;rounded=0;glass=0;strokeWidth=1;shadow=0;" vertex="1" parent="WIyWlLk6GJQsqaUBKTNV-1">
          <mxGeometry x="510" y="-110" width="80" height="60" as="geometry" />
        </mxCell>
        <mxCell id="ZnrSPSn4q6URJcWRULZG-75" value="IdTourPlan" style="ellipse;whiteSpace=wrap;html=1;rounded=0;glass=0;strokeWidth=1;shadow=0;" vertex="1" parent="WIyWlLk6GJQsqaUBKTNV-1">
          <mxGeometry x="590" y="-90" width="80" height="60" as="geometry" />
        </mxCell>
        <mxCell id="ZnrSPSn4q6URJcWRULZG-76" value="IsDenied" style="ellipse;whiteSpace=wrap;html=1;rounded=0;glass=0;strokeWidth=1;shadow=0;" vertex="1" parent="WIyWlLk6GJQsqaUBKTNV-1">
          <mxGeometry x="840" y="-20" width="80" height="60" as="geometry" />
        </mxCell>
        <mxCell id="ZnrSPSn4q6URJcWRULZG-77" value="CurrentLongitude" style="ellipse;whiteSpace=wrap;html=1;rounded=0;glass=0;strokeWidth=1;shadow=0;" vertex="1" parent="WIyWlLk6GJQsqaUBKTNV-1">
          <mxGeometry x="710" y="-100" width="100" height="60" as="geometry" />
        </mxCell>
        <mxCell id="ZnrSPSn4q6URJcWRULZG-78" value="IsPending" style="ellipse;whiteSpace=wrap;html=1;rounded=0;glass=0;strokeWidth=1;shadow=0;" vertex="1" parent="WIyWlLk6GJQsqaUBKTNV-1">
          <mxGeometry x="790" y="60" width="80" height="60" as="geometry" />
        </mxCell>
        <mxCell id="ZnrSPSn4q6URJcWRULZG-79" value="CurrentLatitude" style="ellipse;whiteSpace=wrap;html=1;rounded=0;glass=0;strokeWidth=1;shadow=0;" vertex="1" parent="WIyWlLk6GJQsqaUBKTNV-1">
          <mxGeometry x="715" y="-30" width="90" height="60" as="geometry" />
        </mxCell>
        <mxCell id="ZnrSPSn4q6URJcWRULZG-90" style="rounded=0;orthogonalLoop=1;jettySize=auto;html=1;endArrow=none;endFill=0;" edge="1" parent="WIyWlLk6GJQsqaUBKTNV-1" target="ZnrSPSn4q6URJcWRULZG-42">
          <mxGeometry relative="1" as="geometry">
            <mxPoint x="550" y="380" as="sourcePoint" />
            <mxPoint x="460" y="450" as="targetPoint" />
          </mxGeometry>
        </mxCell>
        <mxCell id="ZnrSPSn4q6URJcWRULZG-91" style="rounded=0;orthogonalLoop=1;jettySize=auto;html=1;endArrow=none;endFill=0;" edge="1" parent="WIyWlLk6GJQsqaUBKTNV-1" target="ZnrSPSn4q6URJcWRULZG-44">
          <mxGeometry relative="1" as="geometry">
            <mxPoint x="550" y="380" as="sourcePoint" />
            <mxPoint x="590" y="540" as="targetPoint" />
          </mxGeometry>
        </mxCell>
        <mxCell id="ZnrSPSn4q6URJcWRULZG-92" style="rounded=0;orthogonalLoop=1;jettySize=auto;html=1;endArrow=none;endFill=0;" edge="1" parent="WIyWlLk6GJQsqaUBKTNV-1" target="ZnrSPSn4q6URJcWRULZG-45">
          <mxGeometry relative="1" as="geometry">
            <mxPoint x="550" y="380" as="sourcePoint" />
            <mxPoint x="640" y="440" as="targetPoint" />
          </mxGeometry>
        </mxCell>
        <mxCell id="ZnrSPSn4q6URJcWRULZG-93" value="" style="rounded=0;orthogonalLoop=1;jettySize=auto;html=1;endArrow=none;endFill=0;" edge="1" parent="WIyWlLk6GJQsqaUBKTNV-1" target="ZnrSPSn4q6URJcWRULZG-62">
          <mxGeometry relative="1" as="geometry">
            <mxPoint x="610" y="350" as="sourcePoint" />
            <mxPoint x="670" y="260" as="targetPoint" />
          </mxGeometry>
        </mxCell>
      </root>
    </mxGraphModel>
  </diagram>
</mxfile>
